ply
format ascii 1.0
comment Triangle Mesh Data Format in OpenHolo Library v 1.0
element color 1
property int channel
element vertex 18
property uint face_idx
property float x
property float y
property float z
property uchar red
property uchar green
property uchar blue
end_header
1
0 1.000000 1.000000 6.000000 127 127 127
0 0.000000 0.000000 4.000000 127 127 127
0 3.000000 0.000000 4.000000 127 127 127
1 1.000000 1.000000 6.000000 127 127 127
1 3.000000 0.000000 4.000000 127 127 127
1 0.000000 3.000000 4.000000 127 127 127
2 1.000000 1.000000 6.000000 127 127 127
2 0.000000 3.000000 4.000000 127 127 127
2 0.000000 0.000000 4.000000 127 127 127
3 3.000000 0.000000 4.000000 127 127 127
3 0.000000 0.000000 4.000000 127 127 127
3 1.500000 0.500000 0.000000 127 127 127
4 0.000000 3.000000 4.000000 127 127 127
4 3.000000 0.000000 4.000000 127 127 127
4 1.500000 0.500000 0.000000 127 127 127
5 0.000000 0.000000 4.000000 127 127 127
5 0.000000 3.000000 4.000000 127 127 127
5 1.500000 0.500000 0.000000 127 127 127
