ply
format ascii 1.0
comment Point Cloud Data Format in OpenHolo Library v1.0
element color 1
property int channel
element vertex 72
property float x
property float y
property float z
property uchar red
property uchar green
property uchar blue
property Real phase
end_header
3
-0.017188 -0.061111 0.611222 237 28 36 3.111967
-0.020312 -0.058333 0.611222 237 28 36 3.111967
-0.023438 -0.055556 0.611222 237 28 36 3.111967
-0.015625 -0.050000 0.611222 237 28 36 3.111967
0.012500 -0.050000 0.611222 237 28 36 3.111967
-0.018750 -0.047222 0.611222 237 28 36 3.111967
-0.021875 -0.044444 0.611222 237 28 36 3.111967
0.020312 -0.044444 0.611222 237 28 36 3.111967
0.017188 -0.041667 0.611222 237 28 36 3.111967
-0.014062 -0.038889 0.611222 237 28 36 3.111967
0.014062 -0.038889 0.611222 237 28 36 3.111967
-0.017188 -0.036111 0.611222 237 28 36 3.111967
0.010937 -0.036111 0.611222 237 28 36 3.111967
-0.020312 -0.033333 0.611222 237 28 36 3.111967
0.007813 -0.033333 0.611222 237 28 36 3.111967
0.021875 -0.033333 0.611222 237 28 36 3.111967
-0.023438 -0.030556 0.611222 237 28 36 3.111967
0.004688 -0.030556 0.611222 237 28 36 3.111967
0.001563 -0.027778 0.611222 237 28 36 3.111967
-0.015625 -0.025000 0.611222 237 28 36 3.111967
-0.001563 -0.025000 0.611222 237 28 36 3.111967
0.012500 -0.025000 0.611222 237 28 36 3.111967
-0.018750 -0.022222 0.611222 237 28 36 3.111967
0.009375 -0.022222 0.611222 237 28 36 3.111967
-0.021875 -0.019444 0.611222 237 28 36 3.111967
0.006250 -0.019444 0.611222 237 28 36 3.111967
0.003125 -0.016667 0.611222 237 28 36 3.111967
-0.014062 -0.013889 0.611222 237 28 36 3.111967
0.000000 -0.013889 0.611222 237 28 36 3.111967
-0.017188 -0.011111 0.611222 237 28 36 3.111967
-0.003125 -0.011111 0.611222 237 28 36 3.111967
-0.020312 -0.008333 0.611222 237 28 36 3.111967
-0.006250 -0.008333 0.611222 237 28 36 3.111967
-0.023438 -0.005556 0.611222 237 28 36 3.111967
0.001563 -0.002778 0.611222 237 28 36 3.111967
-0.015625 0.000000 0.611222 237 28 36 3.111967
-0.001563 0.000000 0.611222 237 28 36 3.111967
-0.018750 0.002778 0.611222 237 28 36 3.111967
-0.004688 0.002778 0.611222 237 28 36 3.111967
-0.021875 0.005556 0.611222 237 28 36 3.111967
-0.007813 0.005556 0.611222 237 28 36 3.111967
-0.010937 0.008333 0.611222 237 28 36 3.111967
0.003125 0.008333 0.611222 237 28 36 3.111967
-0.014062 0.011111 0.611222 237 28 36 3.111967
0.000000 0.011111 0.611222 237 28 36 3.111967
-0.017188 0.013889 0.611222 237 28 36 3.111967
-0.003125 0.013889 0.611222 237 28 36 3.111967
-0.020312 0.016667 0.611222 237 28 36 3.111967
-0.006250 0.016667 0.611222 237 28 36 3.111967
-0.023438 0.019444 0.611222 237 28 36 3.111967
0.004688 0.019444 0.611222 237 28 36 3.111967
0.001563 0.022222 0.611222 237 28 36 3.111967
-0.015625 0.025000 0.611222 237 28 36 3.111967
-0.001563 0.025000 0.611222 237 28 36 3.111967
-0.018750 0.027778 0.611222 237 28 36 3.111967
-0.004688 0.027778 0.611222 237 28 36 3.111967
0.009375 0.027778 0.611222 237 28 36 3.111967
-0.021875 0.030556 0.611222 237 28 36 3.111967
0.006250 0.030556 0.611222 237 28 36 3.111967
0.003125 0.033333 0.611222 237 28 36 3.111967
-0.014062 0.036111 0.611222 237 28 36 3.111967
0.000000 0.036111 0.611222 237 28 36 3.111967
0.014062 0.036111 0.611222 237 28 36 3.111967
-0.017188 0.038889 0.611222 237 28 36 3.111967
0.010937 0.038889 0.611222 237 28 36 3.111967
-0.020312 0.041667 0.611222 237 28 36 3.111967
0.007813 0.041667 0.611222 237 28 36 3.111967
-0.023438 0.044444 0.611222 237 28 36 3.111967
0.004688 0.044444 0.611222 237 28 36 3.111967
-0.015625 0.050000 0.611222 237 28 36 3.111967
-0.018750 0.052778 0.611222 237 28 36 3.111967
-0.021875 0.055556 0.611222 237 28 36 3.111967
